<svg preserveAspectRatio="none" overflow="visible" style="display: block;" width="17" height="17" viewBox="0 0 17 17" fill="none" xmlns="http://www.w3.org/2000/svg">
<g id="Icon" opacity="0.7">
<path id="Vector" d="M14.7668 10.5227L11.6384 9.1209L11.6297 9.11691C11.4673 9.04745 11.2902 9.01957 11.1143 9.03581C10.9384 9.05204 10.7693 9.11187 10.6223 9.20988C10.605 9.22131 10.5884 9.23373 10.5725 9.24707L8.95621 10.625C7.93223 10.1276 6.87504 9.0784 6.37766 8.0677L7.75758 6.4268C7.77086 6.4102 7.78348 6.39359 7.79543 6.37566C7.89134 6.22911 7.94953 6.06111 7.96482 5.88663C7.98012 5.71215 7.95204 5.53659 7.88309 5.37559V5.36762L6.47727 2.23391C6.38612 2.02357 6.22939 1.84836 6.03048 1.73442C5.83156 1.62049 5.60114 1.57393 5.37359 1.60172C4.47377 1.72013 3.64781 2.16203 3.04999 2.84491C2.45218 3.52778 2.12337 4.40492 2.125 5.3125C2.125 10.5852 6.41484 14.875 11.6875 14.875C12.5951 14.8766 13.4722 14.5478 14.1551 13.95C14.838 13.3522 15.2799 12.5262 15.3983 11.6264C15.4261 11.3989 15.3797 11.1686 15.2658 10.9697C15.152 10.7708 14.977 10.614 14.7668 10.5227ZM11.6875 13.8125C9.43392 13.81 7.27334 12.9137 5.67981 11.3202C4.08628 9.72666 3.18996 7.56608 3.1875 5.3125C3.185 4.66404 3.41863 4.03683 3.84475 3.54802C4.27087 3.05921 4.86034 2.74222 5.50309 2.65625C5.50282 2.6589 5.50282 2.66157 5.50309 2.66422L6.89762 5.78531L5.525 7.4282C5.51107 7.44423 5.49841 7.46133 5.48715 7.47934C5.38722 7.63268 5.32859 7.80924 5.31696 7.9919C5.30532 8.17456 5.34107 8.35713 5.42074 8.52191C6.02238 9.75242 7.26219 10.9829 8.50598 11.5839C8.67197 11.6628 8.8556 11.6973 9.03892 11.6841C9.22224 11.6708 9.39898 11.6102 9.55187 11.5082C9.56892 11.4967 9.58533 11.4843 9.60102 11.471L11.2154 10.0938L14.3364 11.4916C14.3364 11.4916 14.3418 11.4916 14.3438 11.4916C14.2588 12.1353 13.9423 12.7259 13.4534 13.1531C12.9645 13.5803 12.3367 13.8147 11.6875 13.8125Z" fill="#F6F6F6"/>
</g>
</svg>
